# xmcd CD database file
#
# Track frame offsets:
#	180
#	17025
#	34880
#	56938
#	73548
#	95329
#	111632
#	133703
#	149446
#	165461
#	188574
#	209255
#	225409
#
# Disc length: 3249 seconds
#
# Revision: 0
# Processed by: cddbd v1.5.2PL0 Copyright (c) Steve Scherf et al.
# Submitted via: CDex 1.51
#
DISCID=b90caf0d
DTITLE=Eine kleine Jazzmusik - Für Arno
DYEAR=1995
DGENRE=Jazz
TTITLE0=King Porter Stomp
TTITLE1=The Lady Is A Tramp
TTITLE2=It Had To Be You
TTITLE3=Queen Of Palesteena
TTITLE4=God Bless The Child
TTITLE5=Satin Doll
TTITLE6=Just One Of Those Things
TTITLE7=I'm Coming Virginia
TTITLE8=Undecided
TTITLE9=The Lonesome Road
TTITLE10=But Not For Me
TTITLE11=Fly Me To The Moon
TTITLE12=Eine Kleine Jazzmusik
EXTD=YEAR: 1995
EXTT0=
EXTT1=
EXTT2=
EXTT3=
EXTT4=
EXTT5=
EXTT6=
EXTT7=
EXTT8=
EXTT9=
EXTT10=
EXTT11=
EXTT12=
PLAYORDER=
